# Blender v2.78 (sub 0) OBJ File: ''
# www.blender.org
mtllib purpleCube.mtl
o Cube_Cube.001
v 0.172039 -0.591797 1.284972
v -0.772351 0.588844 2.594252
v -1.086380 -0.003003 -0.153675
v -2.030769 1.177637 1.155606
v 1.406750 0.911336 0.820127
v 0.462360 2.091977 2.129407
v 0.148331 1.500129 -0.618519
v -0.796059 2.680770 0.690761
vn -0.6174 -0.7516 0.2324
vn -0.6292 0.2944 -0.7193
vn 0.6174 0.7516 -0.2324
vn 0.6292 -0.2944 0.7193
vn 0.4722 -0.5903 -0.6546
vn -0.4722 0.5903 0.6546
usemtl Material.005
s off
f 1//1 2//1 4//1 3//1
f 3//2 4//2 8//2 7//2
f 7//3 8//3 6//3 5//3
f 5//4 6//4 2//4 1//4
f 3//5 7//5 5//5 1//5
f 8//6 4//6 2//6 6//6
