# Blender v2.78 (sub 0) OBJ File: ''
# www.blender.org
mtllib yellowColumn.mtl
o Cylinder_Cylinder.001
v 6.607920 3.869932 0.262743
v 6.607920 6.062361 0.262743
v 6.624393 3.869932 0.263135
v 6.624393 6.062361 0.263135
v 6.640830 3.869932 0.264310
v 6.640830 6.062361 0.264310
v 6.657192 3.869932 0.266267
v 6.657192 6.062361 0.266267
v 6.673441 3.869932 0.268999
v 6.673441 6.062361 0.268999
v 6.689543 3.869932 0.272502
v 6.689543 6.062361 0.272502
v 6.705460 3.869932 0.276767
v 6.705460 6.062361 0.276767
v 6.721156 3.869932 0.281784
v 6.721156 6.062361 0.281784
v 6.736595 3.869932 0.287543
v 6.736595 6.062361 0.287543
v 6.751743 3.869932 0.294029
v 6.751743 6.062361 0.294029
v 6.766564 3.869932 0.301229
v 6.766564 6.062361 0.301229
v 6.781027 3.869932 0.309126
v 6.781027 6.062361 0.309126
v 6.795097 3.869932 0.317703
v 6.795097 6.062361 0.317703
v 6.808744 3.869932 0.326939
v 6.808744 6.062361 0.326939
v 6.821936 3.869932 0.336814
v 6.821936 6.062361 0.336814
v 6.834642 3.869932 0.347306
v 6.834642 6.062361 0.347306
v 6.846835 3.869932 0.358390
v 6.846835 6.062361 0.358390
v 6.858487 3.869932 0.370042
v 6.858487 6.062361 0.370042
v 6.869571 3.869932 0.382235
v 6.869571 6.062361 0.382235
v 6.880063 3.869932 0.394941
v 6.880063 6.062361 0.394941
v 6.889938 3.869932 0.408133
v 6.889938 6.062361 0.408133
v 6.899174 3.869932 0.421779
v 6.899174 6.062361 0.421779
v 6.907750 3.869932 0.435850
v 6.907750 6.062361 0.435850
v 6.915648 3.869932 0.450312
v 6.915648 6.062361 0.450312
v 6.922848 3.869932 0.465134
v 6.922848 6.062361 0.465134
v 6.929334 3.869932 0.480282
v 6.929334 6.062361 0.480282
v 6.935093 3.869932 0.495721
v 6.935093 6.062361 0.495721
v 6.940110 3.869932 0.511417
v 6.940110 6.062361 0.511417
v 6.944375 3.869932 0.527334
v 6.944375 6.062361 0.527334
v 6.947878 3.869932 0.543435
v 6.947878 6.062361 0.543435
v 6.950610 3.869932 0.559685
v 6.950610 6.062361 0.559685
v 6.952567 3.869932 0.576047
v 6.952567 6.062361 0.576047
v 6.953742 3.869932 0.592483
v 6.953742 6.062361 0.592483
v 6.954134 3.869932 0.608957
v 6.954134 6.062361 0.608957
v 6.953742 3.869932 0.625430
v 6.953742 6.062361 0.625430
v 6.952567 3.869932 0.641866
v 6.952567 6.062361 0.641866
v 6.950610 3.869932 0.658228
v 6.950610 6.062361 0.658228
v 6.947877 3.869932 0.674478
v 6.947877 6.062361 0.674478
v 6.944375 3.869932 0.690580
v 6.944375 6.062361 0.690580
v 6.940110 3.869932 0.706496
v 6.940110 6.062361 0.706496
v 6.935092 3.869932 0.722192
v 6.935092 6.062361 0.722192
v 6.929334 3.869932 0.737631
v 6.929334 6.062361 0.737631
v 6.922847 3.869932 0.752779
v 6.922847 6.062361 0.752779
v 6.915648 3.869932 0.767601
v 6.915648 6.062361 0.767601
v 6.907750 3.869932 0.782064
v 6.907750 6.062361 0.782064
v 6.899174 3.869932 0.796134
v 6.899174 6.062361 0.796134
v 6.889938 3.869932 0.809780
v 6.889938 6.062361 0.809780
v 6.880063 3.869932 0.822972
v 6.880063 6.062361 0.822972
v 6.869571 3.869932 0.835679
v 6.869571 6.062361 0.835679
v 6.858487 3.869932 0.847872
v 6.858487 6.062361 0.847872
v 6.846835 3.869932 0.859523
v 6.846835 6.062361 0.859523
v 6.834642 3.869932 0.870608
v 6.834642 6.062361 0.870608
v 6.821936 3.869932 0.881099
v 6.821936 6.062361 0.881099
v 6.808744 3.869932 0.890974
v 6.808744 6.062361 0.890974
v 6.795098 3.869932 0.900210
v 6.795098 6.062361 0.900210
v 6.781027 3.869932 0.908787
v 6.781027 6.062361 0.908787
v 6.766565 3.869932 0.916684
v 6.766565 6.062361 0.916684
v 6.751743 3.869932 0.923884
v 6.751743 6.062361 0.923884
v 6.736595 3.869932 0.930370
v 6.736595 6.062361 0.930370
v 6.721156 3.869932 0.936129
v 6.721156 6.062361 0.936129
v 6.705460 3.869932 0.941146
v 6.705460 6.062361 0.941146
v 6.689544 3.869932 0.945411
v 6.689544 6.062361 0.945411
v 6.673442 3.869932 0.948914
v 6.673442 6.062361 0.948914
v 6.657192 3.869932 0.951647
v 6.657192 6.062361 0.951647
v 6.640831 3.869932 0.953603
v 6.640831 6.062361 0.953603
v 6.624394 3.869932 0.954778
v 6.624394 6.062361 0.954778
v 6.607921 3.869932 0.955171
v 6.607921 6.062361 0.955171
v 6.591447 3.869932 0.954778
v 6.591447 6.062361 0.954778
v 6.575011 3.869932 0.953603
v 6.575011 6.062361 0.953603
v 6.558650 3.869932 0.951647
v 6.558650 6.062361 0.951647
v 6.542399 3.869932 0.948914
v 6.542399 6.062361 0.948914
v 6.526298 3.869932 0.945412
v 6.526298 6.062361 0.945412
v 6.510381 3.869932 0.941147
v 6.510381 6.062361 0.941147
v 6.494685 3.869932 0.936129
v 6.494685 6.062361 0.936129
v 6.479246 3.869932 0.930371
v 6.479246 6.062361 0.930371
v 6.464098 3.869932 0.923884
v 6.464098 6.062361 0.923884
v 6.449276 3.869932 0.916684
v 6.449276 6.062361 0.916684
v 6.434814 3.869932 0.908787
v 6.434814 6.062361 0.908787
v 6.420743 3.869932 0.900211
v 6.420743 6.062361 0.900211
v 6.407097 3.869932 0.890975
v 6.407097 6.062361 0.890975
v 6.393906 3.869932 0.881100
v 6.393906 6.062361 0.881100
v 6.381199 3.869932 0.870608
v 6.381199 6.062361 0.870608
v 6.369006 3.869932 0.859524
v 6.369006 6.062361 0.859524
v 6.357354 3.869932 0.847872
v 6.357354 6.062361 0.847872
v 6.346270 3.869932 0.835679
v 6.346270 6.062361 0.835679
v 6.335778 3.869932 0.822973
v 6.335778 6.062361 0.822973
v 6.325903 3.869932 0.809781
v 6.325903 6.062361 0.809781
v 6.316667 3.869932 0.796135
v 6.316667 6.062361 0.796135
v 6.308091 3.869932 0.782065
v 6.308091 6.062361 0.782065
v 6.300193 3.869932 0.767602
v 6.300193 6.062361 0.767602
v 6.292994 3.869932 0.752780
v 6.292994 6.062361 0.752780
v 6.286507 3.869932 0.737633
v 6.286507 6.062361 0.737633
v 6.280748 3.869932 0.722193
v 6.280748 6.062361 0.722193
v 6.275731 3.869932 0.706498
v 6.275731 6.062361 0.706498
v 6.271466 3.869932 0.690581
v 6.271466 6.062361 0.690581
v 6.267963 3.869932 0.674479
v 6.267963 6.062361 0.674479
v 6.265230 3.869932 0.658229
v 6.265230 6.062361 0.658229
v 6.263274 3.869932 0.641868
v 6.263274 6.062361 0.641868
v 6.262098 3.869932 0.625432
v 6.262098 6.062361 0.625432
v 6.261706 3.869932 0.608958
v 6.261706 6.062361 0.608958
v 6.262098 3.869932 0.592485
v 6.262098 6.062361 0.592485
v 6.263274 3.869932 0.576049
v 6.263274 6.062361 0.576049
v 6.265230 3.869932 0.559687
v 6.265230 6.062361 0.559687
v 6.267962 3.869932 0.543437
v 6.267962 6.062361 0.543437
v 6.271465 3.869932 0.527335
v 6.271465 6.062361 0.527335
v 6.275730 3.869932 0.511419
v 6.275730 6.062361 0.511419
v 6.280747 3.869932 0.495723
v 6.280747 6.062361 0.495723
v 6.286506 3.869932 0.480284
v 6.286506 6.062361 0.480284
v 6.292992 3.869932 0.465136
v 6.292992 6.062361 0.465136
v 6.300192 3.869932 0.450314
v 6.300192 6.062361 0.450314
v 6.308089 3.869932 0.435851
v 6.308089 6.062361 0.435851
v 6.316665 3.869932 0.421781
v 6.316665 6.062361 0.421781
v 6.325902 3.869932 0.408134
v 6.325902 6.062361 0.408134
v 6.335776 3.869932 0.394943
v 6.335776 6.062361 0.394943
v 6.346268 3.869932 0.382236
v 6.346268 6.062361 0.382236
v 6.357352 3.869932 0.370043
v 6.357352 6.062361 0.370043
v 6.369004 3.869932 0.358391
v 6.369004 6.062361 0.358391
v 6.381196 3.869932 0.347307
v 6.381196 6.062361 0.347307
v 6.393903 3.869932 0.336815
v 6.393903 6.062361 0.336815
v 6.407094 3.869932 0.326940
v 6.407094 6.062361 0.326940
v 6.420741 3.869932 0.317704
v 6.420741 6.062361 0.317704
v 6.434811 3.869932 0.309128
v 6.434811 6.062361 0.309128
v 6.449274 3.869932 0.301230
v 6.449274 6.062361 0.301230
v 6.464096 3.869932 0.294030
v 6.464096 6.062361 0.294030
v 6.479243 3.869932 0.287544
v 6.479243 6.062361 0.287544
v 6.494682 3.869932 0.281785
v 6.494682 6.062361 0.281785
v 6.510378 3.869932 0.276767
v 6.510378 6.062361 0.276767
v 6.526295 3.869932 0.272502
v 6.526295 6.062361 0.272502
v 6.542396 3.869932 0.269000
v 6.542396 6.062361 0.269000
v 6.558646 3.869932 0.266267
v 6.558646 6.062361 0.266267
v 6.575008 3.869932 0.264311
v 6.575008 6.062361 0.264311
v 6.591444 3.869932 0.263135
v 6.591444 6.062361 0.263135
vn 0.0238 0.0000 -0.9997
vn 0.0713 0.0000 -0.9975
vn 0.1187 0.0000 -0.9929
vn 0.1658 0.0000 -0.9862
vn 0.2126 0.0000 -0.9771
vn 0.2588 0.0000 -0.9659
vn 0.3045 0.0000 -0.9525
vn 0.3495 0.0000 -0.9369
vn 0.3936 0.0000 -0.9193
vn 0.4370 0.0000 -0.8995
vn 0.4792 0.0000 -0.8777
vn 0.5205 0.0000 -0.8539
vn 0.5605 0.0000 -0.8282
vn 0.5993 0.0000 -0.8005
vn 0.6367 0.0000 -0.7711
vn 0.6727 0.0000 -0.7400
vn 0.7071 0.0000 -0.7071
vn 0.7400 0.0000 -0.6727
vn 0.7711 0.0000 -0.6367
vn 0.8005 0.0000 -0.5993
vn 0.8282 0.0000 -0.5605
vn 0.8539 0.0000 -0.5205
vn 0.8777 0.0000 -0.4793
vn 0.8995 0.0000 -0.4370
vn 0.9193 0.0000 -0.3936
vn 0.9369 0.0000 -0.3495
vn 0.9525 0.0000 -0.3045
vn 0.9659 0.0000 -0.2588
vn 0.9771 0.0000 -0.2126
vn 0.9862 0.0000 -0.1658
vn 0.9929 0.0000 -0.1187
vn 0.9975 0.0000 -0.0713
vn 0.9997 0.0000 -0.0238
vn 0.9997 0.0000 0.0238
vn 0.9975 0.0000 0.0713
vn 0.9929 0.0000 0.1187
vn 0.9862 0.0000 0.1658
vn 0.9772 0.0000 0.2125
vn 0.9659 0.0000 0.2588
vn 0.9525 0.0000 0.3045
vn 0.9370 0.0000 0.3495
vn 0.9193 0.0000 0.3937
vn 0.8995 0.0000 0.4369
vn 0.8777 0.0000 0.4793
vn 0.8539 0.0000 0.5205
vn 0.8282 0.0000 0.5605
vn 0.8005 0.0000 0.5993
vn 0.7711 0.0000 0.6367
vn 0.7400 0.0000 0.6727
vn 0.7071 0.0000 0.7071
vn 0.6727 0.0000 0.7400
vn 0.6367 0.0000 0.7711
vn 0.5993 0.0000 0.8005
vn 0.5605 0.0000 0.8281
vn 0.5205 0.0000 0.8539
vn 0.4793 0.0000 0.8777
vn 0.4369 0.0000 0.8995
vn 0.3937 0.0000 0.9193
vn 0.3495 0.0000 0.9369
vn 0.3045 0.0000 0.9525
vn 0.2588 0.0000 0.9659
vn 0.2126 0.0000 0.9771
vn 0.1658 0.0000 0.9862
vn 0.1187 0.0000 0.9929
vn 0.0713 0.0000 0.9975
vn 0.0238 0.0000 0.9997
vn -0.0238 0.0000 0.9997
vn -0.0713 0.0000 0.9975
vn -0.1187 0.0000 0.9929
vn -0.1658 0.0000 0.9862
vn -0.2126 0.0000 0.9771
vn -0.2588 0.0000 0.9659
vn -0.3045 0.0000 0.9525
vn -0.3495 0.0000 0.9369
vn -0.3936 0.0000 0.9193
vn -0.4369 0.0000 0.8995
vn -0.4793 0.0000 0.8777
vn -0.5205 0.0000 0.8539
vn -0.5605 0.0000 0.8281
vn -0.5993 0.0000 0.8005
vn -0.6367 0.0000 0.7711
vn -0.6727 0.0000 0.7399
vn -0.7071 0.0000 0.7071
vn -0.7399 0.0000 0.6727
vn -0.7711 0.0000 0.6367
vn -0.8005 0.0000 0.5993
vn -0.8281 0.0000 0.5605
vn -0.8539 0.0000 0.5205
vn -0.8777 0.0000 0.4793
vn -0.8995 0.0000 0.4369
vn -0.9193 0.0000 0.3937
vn -0.9370 0.0000 0.3495
vn -0.9525 0.0000 0.3045
vn -0.9659 0.0000 0.2588
vn -0.9771 0.0000 0.2126
vn -0.9862 0.0000 0.1658
vn -0.9929 0.0000 0.1187
vn -0.9975 0.0000 0.0714
vn -0.9997 0.0000 0.0238
vn -0.9997 0.0000 -0.0238
vn -0.9975 0.0000 -0.0713
vn -0.9929 0.0000 -0.1187
vn -0.9862 0.0000 -0.1658
vn -0.9772 0.0000 -0.2125
vn -0.9659 0.0000 -0.2588
vn -0.9525 0.0000 -0.3045
vn -0.9369 0.0000 -0.3495
vn -0.9193 0.0000 -0.3936
vn -0.8995 0.0000 -0.4369
vn -0.8777 0.0000 -0.4793
vn -0.8539 0.0000 -0.5204
vn -0.8281 0.0000 -0.5605
vn -0.8005 0.0000 -0.5993
vn -0.7711 0.0000 -0.6367
vn -0.7400 0.0000 -0.6727
vn -0.7071 0.0000 -0.7071
vn -0.6727 0.0000 -0.7399
vn -0.6367 0.0000 -0.7711
vn -0.5993 0.0000 -0.8005
vn -0.5605 0.0000 -0.8281
vn -0.5205 0.0000 -0.8539
vn -0.4793 0.0000 -0.8777
vn -0.4369 0.0000 -0.8995
vn -0.3937 0.0000 -0.9193
vn -0.3495 0.0000 -0.9369
vn -0.3045 0.0000 -0.9525
vn -0.2588 0.0000 -0.9659
vn -0.2126 0.0000 -0.9771
vn -0.1658 0.0000 -0.9862
vn -0.1187 0.0000 -0.9929
vn 0.0000 1.0000 0.0000
vn -0.0713 0.0000 -0.9975
vn -0.0238 0.0000 -0.9997
vn 0.0000 -1.0000 -0.0000
usemtl Material.008
s off
f 1//1 2//1 4//1 3//1
f 3//2 4//2 6//2 5//2
f 5//3 6//3 8//3 7//3
f 7//4 8//4 10//4 9//4
f 9//5 10//5 12//5 11//5
f 11//6 12//6 14//6 13//6
f 13//7 14//7 16//7 15//7
f 15//8 16//8 18//8 17//8
f 17//9 18//9 20//9 19//9
f 19//10 20//10 22//10 21//10
f 21//11 22//11 24//11 23//11
f 23//12 24//12 26//12 25//12
f 25//13 26//13 28//13 27//13
f 27//14 28//14 30//14 29//14
f 29//15 30//15 32//15 31//15
f 31//16 32//16 34//16 33//16
f 33//17 34//17 36//17 35//17
f 35//18 36//18 38//18 37//18
f 37//19 38//19 40//19 39//19
f 39//20 40//20 42//20 41//20
f 41//21 42//21 44//21 43//21
f 43//22 44//22 46//22 45//22
f 45//23 46//23 48//23 47//23
f 47//24 48//24 50//24 49//24
f 49//25 50//25 52//25 51//25
f 51//26 52//26 54//26 53//26
f 53//27 54//27 56//27 55//27
f 55//28 56//28 58//28 57//28
f 57//29 58//29 60//29 59//29
f 59//30 60//30 62//30 61//30
f 61//31 62//31 64//31 63//31
f 63//32 64//32 66//32 65//32
f 65//33 66//33 68//33 67//33
f 67//34 68//34 70//34 69//34
f 69//35 70//35 72//35 71//35
f 71//36 72//36 74//36 73//36
f 73//37 74//37 76//37 75//37
f 75//38 76//38 78//38 77//38
f 77//39 78//39 80//39 79//39
f 79//40 80//40 82//40 81//40
f 81//41 82//41 84//41 83//41
f 83//42 84//42 86//42 85//42
f 85//43 86//43 88//43 87//43
f 87//44 88//44 90//44 89//44
f 89//45 90//45 92//45 91//45
f 91//46 92//46 94//46 93//46
f 93//47 94//47 96//47 95//47
f 95//48 96//48 98//48 97//48
f 97//49 98//49 100//49 99//49
f 99//50 100//50 102//50 101//50
f 101//51 102//51 104//51 103//51
f 103//52 104//52 106//52 105//52
f 105//53 106//53 108//53 107//53
f 107//54 108//54 110//54 109//54
f 109//55 110//55 112//55 111//55
f 111//56 112//56 114//56 113//56
f 113//57 114//57 116//57 115//57
f 115//58 116//58 118//58 117//58
f 117//59 118//59 120//59 119//59
f 119//60 120//60 122//60 121//60
f 121//61 122//61 124//61 123//61
f 123//62 124//62 126//62 125//62
f 125//63 126//63 128//63 127//63
f 127//64 128//64 130//64 129//64
f 129//65 130//65 132//65 131//65
f 131//66 132//66 134//66 133//66
f 133//67 134//67 136//67 135//67
f 135//68 136//68 138//68 137//68
f 137//69 138//69 140//69 139//69
f 139//70 140//70 142//70 141//70
f 141//71 142//71 144//71 143//71
f 143//72 144//72 146//72 145//72
f 145//73 146//73 148//73 147//73
f 147//74 148//74 150//74 149//74
f 149//75 150//75 152//75 151//75
f 151//76 152//76 154//76 153//76
f 153//77 154//77 156//77 155//77
f 155//78 156//78 158//78 157//78
f 157//79 158//79 160//79 159//79
f 159//80 160//80 162//80 161//80
f 161//81 162//81 164//81 163//81
f 163//82 164//82 166//82 165//82
f 165//83 166//83 168//83 167//83
f 167//84 168//84 170//84 169//84
f 169//85 170//85 172//85 171//85
f 171//86 172//86 174//86 173//86
f 173//87 174//87 176//87 175//87
f 175//88 176//88 178//88 177//88
f 177//89 178//89 180//89 179//89
f 179//90 180//90 182//90 181//90
f 181//91 182//91 184//91 183//91
f 183//92 184//92 186//92 185//92
f 185//93 186//93 188//93 187//93
f 187//94 188//94 190//94 189//94
f 189//95 190//95 192//95 191//95
f 191//96 192//96 194//96 193//96
f 193//97 194//97 196//97 195//97
f 195//98 196//98 198//98 197//98
f 197//99 198//99 200//99 199//99
f 199//100 200//100 202//100 201//100
f 201//101 202//101 204//101 203//101
f 203//102 204//102 206//102 205//102
f 205//103 206//103 208//103 207//103
f 207//104 208//104 210//104 209//104
f 209//105 210//105 212//105 211//105
f 211//106 212//106 214//106 213//106
f 213//107 214//107 216//107 215//107
f 215//108 216//108 218//108 217//108
f 217//109 218//109 220//109 219//109
f 219//110 220//110 222//110 221//110
f 221//111 222//111 224//111 223//111
f 223//112 224//112 226//112 225//112
f 225//113 226//113 228//113 227//113
f 227//114 228//114 230//114 229//114
f 229//115 230//115 232//115 231//115
f 231//116 232//116 234//116 233//116
f 233//117 234//117 236//117 235//117
f 235//118 236//118 238//118 237//118
f 237//119 238//119 240//119 239//119
f 239//120 240//120 242//120 241//120
f 241//121 242//121 244//121 243//121
f 243//122 244//122 246//122 245//122
f 245//123 246//123 248//123 247//123
f 247//124 248//124 250//124 249//124
f 249//125 250//125 252//125 251//125
f 251//126 252//126 254//126 253//126
f 253//127 254//127 256//127 255//127
f 255//128 256//128 258//128 257//128
f 257//129 258//129 260//129 259//129
f 259//130 260//130 262//130 261//130
f 4//131 2//131 264//131 262//131 260//131 258//131 256//131 254//131 252//131 250//131 248//131 246//131 244//131 242//131 240//131 238//131 236//131 234//131 232//131 230//131 228//131 226//131 224//131 222//131 220//131 218//131 216//131 214//131 212//131 210//131 208//131 206//131 204//131 202//131 200//131 198//131 196//131 194//131 192//131 190//131 188//131 186//131 184//131 182//131 180//131 178//131 176//131 174//131 172//131 170//131 168//131 166//131 164//131 162//131 160//131 158//131 156//131 154//131 152//131 150//131 148//131 146//131 144//131 142//131 140//131 138//131 136//131 134//131 132//131 130//131 128//131 126//131 124//131 122//131 120//131 118//131 116//131 114//131 112//131 110//131 108//131 106//131 104//131 102//131 100//131 98//131 96//131 94//131 92//131 90//131 88//131 86//131 84//131 82//131 80//131 78//131 76//131 74//131 72//131 70//131 68//131 66//131 64//131 62//131 60//131 58//131 56//131 54//131 52//131 50//131 48//131 46//131 44//131 42//131 40//131 38//131 36//131 34//131 32//131 30//131 28//131 26//131 24//131 22//131 20//131 18//131 16//131 14//131 12//131 10//131 8//131 6//131
f 261//132 262//132 264//132 263//132
f 263//133 264//133 2//133 1//133
f 1//134 3//134 5//134 7//134 9//134 11//134 13//134 15//134 17//134 19//134 21//134 23//134 25//134 27//134 29//134 31//134 33//134 35//134 37//134 39//134 41//134 43//134 45//134 47//134 49//134 51//134 53//134 55//134 57//134 59//134 61//134 63//134 65//134 67//134 69//134 71//134 73//134 75//134 77//134 79//134 81//134 83//134 85//134 87//134 89//134 91//134 93//134 95//134 97//134 99//134 101//134 103//134 105//134 107//134 109//134 111//134 113//134 115//134 117//134 119//134 121//134 123//134 125//134 127//134 129//134 131//134 133//134 135//134 137//134 139//134 141//134 143//134 145//134 147//134 149//134 151//134 153//134 155//134 157//134 159//134 161//134 163//134 165//134 167//134 169//134 171//134 173//134 175//134 177//134 179//134 181//134 183//134 185//134 187//134 189//134 191//134 193//134 195//134 197//134 199//134 201//134 203//134 205//134 207//134 209//134 211//134 213//134 215//134 217//134 219//134 221//134 223//134 225//134 227//134 229//134 231//134 233//134 235//134 237//134 239//134 241//134 243//134 245//134 247//134 249//134 251//134 253//134 255//134 257//134 259//134 261//134 263//134
